<?xml version="1.0" encoding="utf-8" ?>
<svg xmlns="http://www.w3.org/2000/svg" viewBox="240 320 540 380">
  <!-- Mark only — same paths as daloy-logo.svg minus the white background
       plate, so it can be recolored with a srcIn ColorFilter without
       collapsing into a solid square. Use this anywhere the logo needs
       to sit on top of an existing surface (app bar, share card, etc.). -->
  <g fill="#020202">
    <path d="M702.48 559.367C705.65 562.023 769.587 683.408 775.392 695.219C760.157 695.431 744.632 695.274 729.375 695.261C716.693 695.094 704.009 695.064 691.326 695.173C686.137 686.619 681.197 676.575 676.472 667.662C669.994 655.541 663.404 643.481 656.703 631.482L678.057 597.869C685.991 585.167 694.065 571.745 702.48 559.367Z"/>
    <path d="M468.601 385.378L469.749 385.725C475.405 405.008 488.044 431.938 495.405 451.606C476.193 463.844 456.409 478.008 437.165 490.724C461.582 514.561 487.218 537.734 511.915 561.43C507.133 564.246 501.793 566.805 496.811 569.311C491.863 571.963 486.872 574.535 481.84 577.025C477.964 572.304 472.048 566.293 467.793 561.71L441.86 533.63C430.671 521.435 413.28 500.892 401.637 490.274C407.209 480.374 412.607 468.491 417.597 458.136C424.047 444.693 430.652 431.325 437.412 418.035C449.296 394.365 445.375 399.144 468.601 385.378Z"/>
    <path d="M383.765 489.273C387.122 491.96 393.688 499.412 396.9 502.922L418.799 526.92L452.311 563.178C458.061 569.488 464.719 576.581 469.929 583.211C454.604 591.887 437.005 600.398 421.197 608.673C411.373 613.801 401.477 618.791 391.512 623.64C385.097 614.607 377.639 602.039 371.532 592.451C364.867 581.989 355.781 568.29 350.21 557.61C354.645 549.739 359.321 539.343 363.361 531.053C370.233 517.161 377.035 503.234 383.765 489.273Z"/>
    <path d="M626.061 473.24C627.872 473.617 648.758 483.229 651.362 484.495C661.001 512.843 671.497 540.904 680.943 569.416C672.993 583.836 659.237 604.363 650.087 618.579C646.937 613.17 643.667 606.731 640.671 601.155C636.662 593.611 630.314 580.171 625.871 573.537C624.483 571.465 608.067 560.281 604.836 557.99L568.155 531.613C579.694 519.66 591.382 507.852 603.217 496.192C611.092 488.428 618.578 481.443 626.061 473.24Z"/>
    <path d="M340.59 566.033C340.895 566.123 341.2 566.213 341.505 566.303C352.02 582.734 372.266 614.017 381.112 629.347C371.779 634.498 361.073 639.674 351.463 644.636C326.768 657.392 302 670.005 277.16 682.477C267.757 687.112 258.505 692.099 248.976 696.78C251.574 690.841 256.139 683.071 259.311 677.113C266.328 663.751 273.48 650.459 280.764 637.241C291.67 617.196 303.521 593.209 314.929 573.928C320.213 571.731 334.582 567.862 340.59 566.033Z"/>
    <path d="M594.908 567.171C597.648 568.445 612.322 578.401 614.957 580.938C616.091 582.03 621.237 592.093 622.478 594.481L636.31 621.325C648.997 645.956 662.652 670.603 674.791 695.429L647.614 695.048L643.855 691.897C624.288 675.291 604.883 658.494 585.644 641.509C577.114 634.06 569.266 626.339 560.341 619.369C572.135 602.251 583.264 584.426 594.908 567.171Z"/>
    <path d="M550.155 364.303C552.475 364.939 570.11 400.103 573.634 404.107C577.052 408.324 593.446 416.176 595.208 420.561C601.03 435.049 608.879 454.323 613.062 469.189L584.13 497.648C575.339 506.402 566.19 515.954 556.797 523.963C551.728 520.499 546.698 516.981 541.706 513.407C532.107 506.752 523.132 500.48 513.821 493.424C536.123 475.319 559.832 453.786 581.473 434.752C565.998 416.544 549.62 397.009 533.967 379.186L550.155 364.303Z"/>
    <path d="M547.519 624.793C548.343 625.039 620.147 689.819 626.413 695.471L552.897 695.184L472.015 695.142C496.669 671.509 522.971 648.655 547.519 624.793Z"/>
    <path d="M515.603 327.878C516.301 328.266 523.187 345.801 524.106 348.01C516.276 357.367 508.122 366.449 499.66 375.239C511.608 393.532 525.552 413.611 538.19 431.361C533.798 433.035 525.768 437.272 521.205 439.498C516.045 441.944 510.869 444.355 505.676 446.731C500.546 435.123 496.045 422.819 491.392 411.011C487.524 401.194 483.46 391.461 479.739 381.589C487.216 370.137 493.004 352.623 501.235 341.418C503.769 337.969 512.088 330.961 515.603 327.878Z"/>
    <path d="M401.551 654.297C405.798 653.272 410.071 655.886 411.094 660.133C412.117 664.38 409.502 668.652 405.254 669.674C401.009 670.694 396.74 668.081 395.717 663.836C394.695 659.591 397.307 655.321 401.551 654.297Z"/>
    <path d="M373.149 671.664C377.318 670.936 381.301 673.683 382.103 677.838C382.906 681.993 380.232 686.025 376.092 686.902C373.346 687.484 370.501 686.538 368.65 684.429C366.799 682.32 366.23 679.376 367.163 676.73C368.096 674.083 370.385 672.146 373.149 671.664Z"/>
    <path d="M428.674 638.764C432.721 637.574 436.962 639.905 438.127 643.959C439.293 648.012 436.937 652.24 432.876 653.381C428.85 654.513 424.666 652.181 423.51 648.161C422.355 644.142 424.662 639.943 428.674 638.764Z"/>
    <path d="M456.737 621.767C460.799 620.825 464.86 623.339 465.828 627.396C466.796 631.452 464.308 635.53 460.258 636.524C456.171 637.527 452.048 635.011 451.071 630.917C450.094 626.824 452.637 622.717 456.737 621.767Z"/>
    <path d="M483.689 604.8C487.611 603.918 491.535 606.268 492.61 610.141C493.684 614.015 491.531 618.05 487.715 619.315C485.074 620.19 482.165 619.539 480.148 617.622C478.131 615.704 477.334 612.832 478.075 610.149C478.816 607.467 480.974 605.411 483.689 604.8Z"/>
    <path d="M510.681 589.812C514.478 588.835 518.35 591.117 519.335 594.912C520.32 598.708 518.047 602.585 514.253 603.578C510.448 604.574 506.557 602.292 505.569 598.485C504.581 594.678 506.872 590.792 510.681 589.812Z"/>
    <path d="M514.026 522.159C517.828 521.742 521.262 524.453 521.737 528.248C522.212 532.044 519.554 535.518 515.766 536.051C513.264 536.403 510.766 535.38 509.231 533.373C507.695 531.367 507.36 528.689 508.353 526.366C509.347 524.042 511.515 522.435 514.026 522.159Z"/>
    <path d="M532.974 575.228C535.247 574.431 537.774 574.945 539.553 576.568C541.333 578.191 542.079 580.66 541.494 582.996C540.91 585.333 539.09 587.16 536.756 587.753C533.36 588.617 529.886 586.655 528.873 583.3C527.86 579.945 529.667 576.388 532.974 575.228Z"/>
    <path d="M487.467 505.245C489.607 504.307 492.087 504.61 493.939 506.034C495.791 507.458 496.721 509.777 496.365 512.086C496.009 514.395 494.424 516.327 492.229 517.127C488.98 518.312 485.378 516.703 484.091 513.493C482.805 510.283 484.299 506.632 487.467 505.245Z"/>
    <path d="M534.521 540.873C536.763 540.706 538.92 541.76 540.165 543.631C541.411 545.502 541.551 547.899 540.532 549.902C539.512 551.905 537.492 553.203 535.247 553.298C531.852 553.441 528.97 550.834 528.772 547.442C528.574 544.05 531.133 541.126 534.521 540.873Z"/>
    <path d="M555.33 559.778C558.503 558.568 562.058 560.156 563.273 563.328C564.488 566.5 562.904 570.057 559.734 571.276C556.557 572.498 552.992 570.911 551.775 567.732C550.558 564.554 552.15 560.991 555.33 559.778Z"/>
    <path d="M469.143 486.777C472.389 486.785 475.024 489.404 475.054 492.65C475.084 495.896 472.496 498.562 469.251 498.629C467.117 498.674 465.125 497.568 464.034 495.734C462.943 493.9 462.922 491.621 463.979 489.767C465.036 487.914 467.009 486.771 469.143 486.777Z"/>
    <path d="M506.617 462.863C508.442 462.092 510.54 462.363 512.11 463.572C513.68 464.78 514.478 466.739 514.199 468.701C513.921 470.662 512.609 472.322 510.765 473.046C507.964 474.146 504.799 472.789 503.664 470.002C502.529 467.215 503.845 464.034 506.617 462.863Z"/>
    <path d="M486.901 474.747C489.638 473.818 492.609 475.292 493.525 478.034C494.44 480.776 492.951 483.74 490.205 484.642C487.478 485.537 484.54 484.061 483.63 481.338C482.721 478.616 484.183 475.67 486.901 474.747Z"/>
    <path d="M525.605 451.299C528.167 450.31 531.046 451.573 532.053 454.128C533.059 456.682 531.816 459.57 529.269 460.594C526.696 461.628 523.774 460.37 522.758 457.791C521.741 455.212 523.019 452.298 525.605 451.299Z"/>
    <path d="M543.575 438.652C546.162 437.78 548.965 439.17 549.836 441.757C550.706 444.344 549.314 447.146 546.727 448.015C544.142 448.883 541.342 447.492 540.472 444.908C539.603 442.324 540.992 439.523 543.575 438.652Z"/>
    <path d="M556.064 425.217C558.557 424.172 561.424 425.349 562.463 427.844C563.503 430.338 562.319 433.203 559.822 434.237C557.333 435.267 554.48 434.088 553.444 431.601C552.408 429.115 553.58 426.259 556.064 425.217Z"/>
    <path d="M541.684 407.135C544.182 406.367 546.839 407.724 547.68 410.199C548.521 412.674 547.242 415.369 544.793 416.283C543.143 416.898 541.29 416.568 539.954 415.42C538.619 414.273 538.013 412.49 538.373 410.767C538.732 409.043 540.001 407.652 541.684 407.135Z"/>
    <path d="M515.978 372.755C518.284 371.517 521.157 372.341 522.457 374.614C523.756 376.887 523.009 379.781 520.772 381.141C519.271 382.053 517.393 382.079 515.867 381.208C514.341 380.337 513.409 378.706 513.432 376.949C513.455 375.192 514.43 373.586 515.978 372.755Z"/>
    <path d="M528.304 390.146C529.984 389.804 531.716 390.412 532.815 391.728C533.913 393.044 534.201 394.856 533.564 396.448C532.928 398.04 531.469 399.154 529.766 399.349C527.285 399.633 525.021 397.913 524.629 395.447C524.238 392.982 525.858 390.645 528.304 390.146Z"/>
    <path d="M529.046 359.628C531.444 358.711 534.131 359.916 535.043 362.317C535.954 364.717 534.743 367.402 532.341 368.307C529.946 369.21 527.271 368.004 526.363 365.611C525.455 363.218 526.655 360.542 529.046 359.628Z"/>
    <path d="M537.6 347.277C539.432 346.423 541.61 347.214 542.468 349.044C543.326 350.874 542.542 353.054 540.714 353.917C538.879 354.784 536.689 353.996 535.828 352.158C534.966 350.321 535.76 348.133 537.6 347.277Z"/>
  </g>
</svg>
