<?xml version="1.0" encoding="utf-8" ?>
<svg xmlns="http://www.w3.org/2000/svg" viewBox="180 220 1180 330">
  <!-- Wordmark mark-only: no white plate, no #C5C1C7 detail. The "O"
       letter is rendered as a compound path with fill-rule="evenodd"
       so the inner counter is a real hole rather than a white fill —
       lets a srcIn color filter recolor the whole wordmark cleanly
       (including over photos in the share composer) without painting
       the O solid. -->
  <g fill-rule="evenodd">
    <!-- D -->
    <path d="M194.021 235.415L265.469 235.433C276.866 235.44 288.288 235.315 299.68 235.533C428.465 237.988 502.29 393.377 407.374 487.996C382.269 513.506 348.835 529.149 313.163 532.073C299.876 533.207 281.166 532.732 267.296 532.736L195.9 532.652L196.224 411.298L195.833 254.895C221.737 278.445 249.16 307.312 274.766 332.1L274.611 452.957L280.708 452.975C309.083 453.039 330.942 454.99 352.789 433.104C365.571 420.384 372.725 403.074 372.655 385.042C372.643 366.458 365.186 348.653 351.951 335.607C329.063 313.02 305.237 316.213 275.626 316.387C249.848 291.868 218.939 260.987 194.021 235.415Z"/>
    <!-- A (left half) -->
    <path d="M507.404 235.281L592.44 235.421L648.07 387.92C655.127 407.452 662.312 426.937 669.624 446.375C672.961 455.428 676.359 465.988 679.949 474.724C683.006 470.193 678.623 431.218 681.523 426.184L682.107 235.458L760.76 235.446L761.112 442.63C744.807 460.831 729.514 479.904 713.283 498.108C703.429 509.158 693.548 522.149 683.359 532.636L615.339 532.515C609.44 516.433 603.86 500.236 598.602 483.933C578.57 484.262 558.534 484.358 538.499 484.22C528.999 484.186 516.883 483.715 507.715 484.262C515.926 461.351 524.555 436.183 533.639 413.758L575.217 413.808C560.748 376.33 546.492 338.771 532.45 301.131C524.649 280.527 514.139 255.784 507.404 235.281Z"/>
    <!-- A (right half / supplemental stroke) -->
    <path d="M501.262 254.025C503.397 257.315 507.243 268.7 508.916 273.205C519.722 302.292 531.895 331.05 542.395 360.219L504.674 457.243C494.936 482.075 484.419 507.874 475.286 532.86L430.884 532.64L390.795 532.563L390.745 517.648C429.386 490.17 455.538 449.834 459.24 401.898C460.662 389.558 458.059 376.388 459.212 364.302C459.502 361.255 463.113 352.7 464.302 349.854C477.484 318.286 488.625 285.769 501.262 254.025Z"/>
    <!-- L base / connector to O -->
    <path d="M763.178 458.755C782.861 458.53 802.902 458.764 822.614 458.825C843.942 499.755 858.535 507.957 894.175 532.575C872.742 532.779 851.308 532.826 829.875 532.718L698.625 532.627C717.731 509.351 743.023 481.422 763.178 458.755Z"/>
    <!-- O — outer + inner contours combined; evenodd makes the inner
         contour a true hole. Tinting the wordmark white over a photo
         keeps the O actually open. -->
    <path d="M956.285 233.052C1040.3 225.148 1114.79 286.929 1122.55 370.961C1130.31 454.992 1068.4 529.372 984.359 536.991C900.516 544.591 826.354 482.864 818.611 399.034C810.868 315.205 872.469 240.938 956.285 233.052Z M968.519 311.367C1008.72 310.269 1042.25 341.882 1043.52 382.082C1044.78 422.283 1013.31 455.942 973.117 457.376C932.683 458.819 898.78 427.119 897.507 386.68C896.233 346.241 928.075 312.471 968.519 311.367Z"/>
    <!-- Y (left fork) -->
    <path d="M1069.7 235.364L1160.53 235.482C1172.58 259.043 1186.97 284.723 1199.81 307.963C1191.29 323.81 1182.56 339.535 1173.6 355.136C1168.89 363.84 1164.06 372.477 1159.11 381.044C1152.89 369.258 1142.16 353.738 1135.15 341.918C1114.14 306.502 1089.99 271.02 1069.7 235.364Z"/>
    <!-- Y (right fork + stem) -->
    <path d="M1252.34 235.433L1341.64 235.45C1330.88 254.549 1245.43 392.33 1244.5 399.957C1242.8 414.034 1243.97 429.11 1244 443.319L1243.98 523.791L1244.2 532.988L1165.46 532.622L1165.42 435.832C1165.39 428.273 1164.32 395.663 1166.65 391.495C1194.72 341.18 1223.62 284.832 1252.34 235.433Z"/>
  </g>
</svg>
