<?xml version="1.0" encoding="utf-8" ?>
<svg xmlns="http://www.w3.org/2000/svg" viewBox="240 320 540 380">
  <!-- Mark only — D-monogram paths without the dark background plate.
       Single-color so a srcIn ColorFilter can recolor cleanly when the
       logo overlays a photo or a non-dark surface. -->
  <g fill="#00E5A0">
    <path d="M361.861 335.69C365.441 335.083 381.376 335.386 385.596 335.406L431.228 335.444C486.919 335.415 542.824 335.188 598.496 335.395C643.792 335.564 690.143 357.497 721.566 389.918C754.829 424.082 772.858 470.249 771.548 517.913C770.306 563.883 750.938 607.497 717.668 639.244C690.267 665.866 654.938 682.837 617.03 687.588C602.744 689.342 588.418 689.015 574.048 689.029L520.481 689.068L452.099 689.158C447.584 689.167 421.02 689.942 419.769 688.544L420.384 687.416C431.714 672.804 445.617 658.53 457.698 644.295C486.235 610.668 495.979 594.458 542.467 594.469L576.695 594.516C606.256 594.568 626.715 592.978 649.732 570.946C665.21 555.983 674.127 535.496 674.527 513.971C675.042 491.806 666.664 470.356 651.262 454.408C639.397 442.018 624.049 433.523 607.25 430.05C595.328 427.689 577.891 428.458 565.288 428.47L507.73 428.518L342.053 428.502C314.611 428.508 286.579 428.912 259.209 428.537C266.62 417.879 275.376 407.568 283.007 397.099C306.085 365.442 319.673 340.891 361.861 335.69Z"/>
    <path d="M338.858 481.722C360.418 480.934 385.53 481.484 407.401 481.469L541.13 481.582C536.759 485.777 532.359 490.963 528.139 495.441L496.544 529.066C468.982 557.808 441.269 586.405 413.407 614.855C391.64 637.235 367.697 666.544 340.179 681.207C320.306 690.596 307.016 689.117 285.724 689.127L240.263 689.384C242.935 684.82 247.094 680.084 250.352 675.873C278.893 638.986 307.931 602.341 335.833 564.975L241.213 565.054C248.878 554.854 257.315 544.885 265.282 534.889C286.333 508.478 301.651 483.846 338.858 481.722Z"/>
  </g>
</svg>
